<?xml version="1.0" standalone="no"?><!DOCTYPE svg PUBLIC "-//W3C//DTD SVG 1.1//EN" "http://www.w3.org/Graphics/SVG/1.1/DTD/svg11.dtd"><svg t="1617257796341" class="icon" viewBox="0 0 1024 1024" version="1.1" xmlns="http://www.w3.org/2000/svg" p-id="12141" xmlns:xlink="http://www.w3.org/1999/xlink" width="64" height="64"><defs><style type="text/css"></style></defs><path d="M986.04002 182.584H742.37402v-46.387c0-38.446-31.124-69.637-69.57-69.637H347.99602c-38.446 0-69.57 31.191-69.57 69.637v46.387H34.81602A34.78 34.78 0 0 0 0.00002 217.4a34.816 34.816 0 0 0 34.816 34.816h104.397v556.785c0 76.892 62.315 139.213 139.207 139.213h463.954c76.893 0 139.213-62.316 139.213-139.213V252.216H986.04002c19.19 0 34.755-15.626 34.755-34.816 0-19.256-15.565-34.816-34.755-34.816z m-638.044-46.387h324.808v46.387H347.99602v-46.387z m464.016 533.596v139.208c0 38.385-31.248 69.637-69.638 69.637H278.42002c-38.384 0-69.637-31.252-69.637-69.637V252.216h603.229v417.577z" p-id="12142" fill="#bfbfbf"></path><path d="M347.99602 391.43a23.168 23.168 0 0 0-23.193 23.188v348c0 12.8 10.398 23.194 23.193 23.194s23.194-10.393 23.194-23.193V414.618a23.168 23.168 0 0 0-23.194-23.189z m162.401 0a23.163 23.163 0 0 0-23.188 23.188v348c0 12.8 10.394 23.194 23.188 23.194s23.194-10.393 23.194-23.193V414.618a23.168 23.168 0 0 0-23.194-23.189z m162.407 0c-12.8 0-23.194 10.331-23.194 23.188v348c0 12.8 10.394 23.194 23.194 23.194a23.204 23.204 0 0 0 23.188-23.193V414.618a23.163 23.163 0 0 0-23.188-23.189z" p-id="12143" fill="#bfbfbf"></path></svg>