<?xml version="1.0" standalone="no"?><!DOCTYPE svg PUBLIC "-//W3C//DTD SVG 1.1//EN" "http://www.w3.org/Graphics/SVG/1.1/DTD/svg11.dtd"><svg t="1616481451499" class="icon" viewBox="0 0 1024 1024" version="1.1" xmlns="http://www.w3.org/2000/svg" p-id="4162" xmlns:xlink="http://www.w3.org/1999/xlink" width="64" height="64"><defs><style type="text/css"></style></defs><path d="M768 128H256c-70.72 0-128 57.28-128 128v512c0 70.72 57.28 128 128 128h512c70.72 0 128-57.28 128-128V256c0-70.72-57.28-128-128-128z m42.666667 640c0 23.573333-19.093333 42.666667-42.666667 42.666667H256c-23.573333 0-42.666667-19.093333-42.666667-42.666667V256c0-23.573333 19.093333-42.666667 42.666667-42.666667h512c23.573333 0 42.666667 19.093333 42.666667 42.666667v512z" p-id="4163" fill="#ff4d4f"></path></svg>